<svg width="40" height="40" viewBox="0 0 40 40" fill="none" xmlns="http://www.w3.org/2000/svg">
  <!-- Pictogramme seul pour favicon -->
  <rect x="4" y="10" width="12" height="26" fill="#E4B850"/>
  <rect x="4" y="10" width="12" height="4" fill="#0F1A2B"/>
  <rect x="6" y="16" width="2" height="3" fill="#0F1A2B"/>
  <rect x="10" y="16" width="2" height="3" fill="#0F1A2B"/>
  <rect x="6" y="22" width="2" height="3" fill="#0F1A2B"/>
  <rect x="10" y="22" width="2" height="3" fill="#0F1A2B"/>
  <rect x="6" y="28" width="2" height="3" fill="#0F1A2B"/>
  <rect x="10" y="28" width="2" height="3" fill="#0F1A2B"/>
  <rect x="6" y="32" width="6" height="4" fill="#0F1A2B"/>
  
  <rect x="18" y="6" width="14" height="30" fill="#0F1A2B"/>
  <rect x="20" y="10" width="2" height="3" fill="#E4B850"/>
  <rect x="24" y="10" width="2" height="3" fill="#E4B850"/>
  <rect x="28" y="10" width="2" height="3" fill="#E4B850"/>
  <rect x="20" y="16" width="2" height="3" fill="#E4B850"/>
  <rect x="24" y="16" width="2" height="3" fill="#E4B850"/>
  <rect x="28" y="16" width="2" height="3" fill="#E4B850"/>
  <rect x="20" y="22" width="2" height="3" fill="#E4B850"/>
  <rect x="24" y="22" width="2" height="3" fill="#E4B850"/>
  <rect x="28" y="22" width="2" height="3" fill="#E4B850"/>
  <rect x="20" y="28" width="2" height="3" fill="#E4B850"/>
  <rect x="24" y="28" width="2" height="3" fill="#E4B850"/>
  <rect x="28" y="28" width="2" height="3" fill="#E4B850"/>
  <rect x="22" y="32" width="6" height="4" fill="#E4B850"/>
</svg>