<svg width="200" height="60" viewBox="0 0 200 60" fill="none" xmlns="http://www.w3.org/2000/svg">
  <!-- Pictogramme bâtiment géométrique -->
  <g id="building">
    <rect x="8" y="20" width="12" height="30" fill="#E4B850"/>
    <rect x="8" y="20" width="12" height="4" fill="#0F1A2B"/>
    <rect x="10" y="26" width="2" height="3" fill="#0F1A2B"/>
    <rect x="14" y="26" width="2" height="3" fill="#0F1A2B"/>
    <rect x="10" y="32" width="2" height="3" fill="#0F1A2B"/>
    <rect x="14" y="32" width="2" height="3" fill="#0F1A2B"/>
    <rect x="10" y="38" width="2" height="3" fill="#0F1A2B"/>
    <rect x="14" y="38" width="2" height="3" fill="#0F1A2B"/>
    <rect x="10" y="44" width="6" height="6" fill="#0F1A2B"/>
    
    <rect x="22" y="15" width="14" height="35" fill="#0F1A2B"/>
    <rect x="24" y="20" width="2" height="3" fill="#E4B850"/>
    <rect x="28" y="20" width="2" height="3" fill="#E4B850"/>
    <rect x="32" y="20" width="2" height="3" fill="#E4B850"/>
    <rect x="24" y="26" width="2" height="3" fill="#E4B850"/>
    <rect x="28" y="26" width="2" height="3" fill="#E4B850"/>
    <rect x="32" y="26" width="2" height="3" fill="#E4B850"/>
    <rect x="24" y="32" width="2" height="3" fill="#E4B850"/>
    <rect x="28" y="32" width="2" height="3" fill="#E4B850"/>
    <rect x="32" y="32" width="2" height="3" fill="#E4B850"/>
    <rect x="24" y="38" width="2" height="3" fill="#E4B850"/>
    <rect x="28" y="38" width="2" height="3" fill="#E4B850"/>
    <rect x="32" y="38" width="2" height="3" fill="#E4B850"/>
    <rect x="26" y="44" width="6" height="6" fill="#E4B850"/>
  </g>
  
  <!-- Texte IMMO360 -->
  <text x="48" y="35" font-family="Crimson Pro, serif" font-weight="700" font-size="28" fill="#0F1A2B">IMMO</text>
  <text x="130" y="35" font-family="Crimson Pro, serif" font-weight="700" font-size="28" fill="#E4B850">360</text>
  
  <!-- Baseline -->
  <text x="48" y="48" font-family="Inter, sans-serif" font-weight="400" font-size="10" fill="#0F1A2B" opacity="0.7">Votre partenaire immobilier de confiance</text>
</svg>